<svg width="15" height="15" viewBox="0 0 15 15" fill="none" xmlns="http://www.w3.org/2000/svg">
<path d="M6.17364 0.653786C6.49535 -0.2179 7.72823 -0.217899 8.04993 0.653786L8.49384 1.85658C8.69574 2.40363 9.32096 2.6626 9.85053 2.41855L11.0149 1.88193C11.8588 1.49304 12.7306 2.36481 12.3417 3.20867L11.8051 4.37307C11.561 4.90265 11.82 5.52787 12.367 5.72976L13.5698 6.17367C14.4415 6.49538 14.4415 7.72826 13.5698 8.04996L12.367 8.49387C11.82 8.69577 11.561 9.32099 11.8051 9.85057L12.3417 11.015C12.7306 11.8588 11.8588 12.7306 11.0149 12.3417L9.85054 11.8051C9.32096 11.561 8.69574 11.82 8.49384 12.367L8.04993 13.5698C7.72823 14.4415 6.49535 14.4415 6.17364 13.5698L5.72973 12.367C5.52784 11.82 4.90262 11.561 4.37304 11.8051L3.20864 12.3417C2.36478 12.7306 1.49301 11.8588 1.8819 11.015L2.41851 9.85057C2.66257 9.32099 2.4036 8.69577 1.85655 8.49387L0.653756 8.04996C-0.21793 7.72826 -0.21793 6.49538 0.653756 6.17367L1.85655 5.72976C2.4036 5.52787 2.66257 4.90265 2.41851 4.37307L1.8819 3.20867C1.49301 2.36481 2.36478 1.49304 3.20864 1.88193L4.37304 2.41855C4.90262 2.6626 5.52784 2.40363 5.72973 1.85658L6.17364 0.653786Z" fill="#0046FF"/>
</svg>
